# xmcd
#
# Track frame offsets: 
#        150
#        19763
#        43940
#        66010
#        86281
#        104329
#        122559
#        155704
#        180767
#        193507
#        212678
#
# Disc length: 3338 seconds
#
# Revision: 3
# Processed by: cddbd v1.5.2PL0 Copyright (c) Steve Scherf et al.
# Submitted via: ExactAudioCopy v0.95a4
#
DISCID=890d080b
DTITLE=Henrik Freischlader Band - The Blues
DYEAR=2006
DGENRE=Blues
TTITLE0=the blues
TTITLE1=my baby
TTITLE2=nothing to lose
TTITLE3=tired of beggin´
TTITLE4=disappointed woman
TTITLE5=is it right
TTITLE6=when i first saw you
TTITLE7=did you right
TTITLE8=she ain´t got the blues
TTITLE9=no questions
TTITLE10=lonely world
EXTD=
EXTT0=
EXTT1=
EXTT2=
EXTT3=
EXTT4=
EXTT5=
EXTT6=
EXTT7=
EXTT8=
EXTT9=
EXTT10=
PLAYORDER=
